<svg xmlns="http://www.w3.org/2000/svg" fill="none" viewBox="0 0 512 512"><g clip-path="url(#a)"><path fill="#C1CDD5" d="M512 282.368C476.701 141.127 355.641 27.15 227.997 97.166c0 0-64.313-21.277-73.586-27.705-9.031-6.258-23.253-12.857-12.971 6.2 6.016 11.123 12.445 23.78 34.176 47.176-61.838 61.454-43.648 136.889-65.493 186.496-18.546 42.126-36.65 67.314-18.631 99.214 18.73 33.138 67.257 49.237 99.811 15.076 17.693-18.589 6.699-27.549 44.544-59.762 38.727-7.723 62.493-25.472 62.493-62.222 0 0 11.306-5.433 25.97 85.461 6.485 40.078-2.233 80.099-.555 124.914H512V282.368Z"/><path fill="#60379A" d="M453.774 86.216c7.552 18.659 12.06 52.764 8.462 75.633-2.133-55.793-45.34-93.596-62.236-102.3-31.318-16.17-62.18-13.924-96.697-10.98 1.579 2.39 5.731 11.577 4.551 22.002-6.812-12.444-22.812-20.195-33.18-18.076-19.343 3.94-36.424 9.628-49.423 16.44-7.168 1.451-17.763 5.874-33.735 15.66-27.178 16.653-59.377 61.695-95.815 49.933 14.82 35.556 51.641 26.24 51.641 26.24 17.166-27.733 57.842-53.745 87.723-63.317 108.359-24.818 179.399 48.91 219.463 133.661C465.45 254.223 491.662 332.544 512 377.487V155.819c-10.653-14.763-18.219-42.923-58.226-69.603Z"/><path fill="#C1CDD5" d="M196.111 52.082c8.149 11.207 46.023 11.293 65.365 54.329 19.328 43.037-27.634 37.405-44.658 17.493-18.972-22.2-27.463-40.718-30.791-56.775-1.763-8.476-6.414-37.674 10.084-15.047Z"/><path fill="#758795" d="M202.084 70.57c13.596 8.15 30.776 21.547 35.797 36.921 4.992 15.374-10.055 12.672-19.186-.597-9.116-13.284-13.369-28.089-18.275-32.185-4.921-4.11 1.664-4.139 1.664-4.139Z"/><path fill="#292F33" d="M216.96 220.601c7.431 0 13.454-6.024 13.454-13.454 0-7.431-6.023-13.455-13.454-13.455-7.43 0-13.454 6.024-13.454 13.455 0 7.43 6.024 13.454 13.454 13.454Z"/><path fill="#53626C" d="M122.738 382.251c1.692 9.358-2.575 17.963-9.529 19.214-6.969 1.266-13.995-5.291-15.702-14.649-1.692-9.372 2.589-17.991 9.543-19.257 6.969-1.251 13.995 5.305 15.688 14.692Z"/><path fill="#EE7C0E" d="m196.892 115.541.043-.028-.071-.1-.228-.199c-.114-.099-.156-.27-.27-.355-.128-.1-.299-.157-.441-.256C179.498 100.665 13.269-7.04 3.115 3.115-7.255 13.483 148.521 138.553 158.562 146.204l.157.086 7.694 6.243c.114.1.142.256.256.342.185.142.398.213.597.341l.669.54-.128-.227c8.035 5.134 20.295 1.621 28.145-8.42 7.951-10.169 8.207-23.111.939-29.568Z"/><path fill="#C43512" d="m66.518 32 .128-.356c-4.146-2.399-8.309-4.769-12.488-7.11-.227.54-.312.98-.583 1.564a57.106 57.106 0 0 1-6.1 10.183 55.98 55.98 0 0 1-7.695 8.462c-.285.256-.512.37-.797.611 3.385 3.13 6.955 6.344 10.596 9.615a71.197 71.197 0 0 0 16.939-22.97Zm32.355 41.884c4.352-5.83 7.41-11.69 9.387-17.237-4.153-2.574-8.306-5.12-12.459-7.652-1.08 4.239-3.513 9.942-8.334 16.384a49.067 49.067 0 0 1-12.288 12.018c3.683 3.172 7.395 6.33 11.08 9.458 4.465-3.47 8.803-7.85 12.614-12.97Zm41.501 30.223c5.191-6.97 8.661-13.98 10.439-20.438l-12.886-8.334c-.327 4.21-2.446 11.52-8.974 20.267-5.859 7.879-11.676 12.046-15.644 13.909l11.577 9.543a64.526 64.526 0 0 0 15.488-14.947Z"/></g><defs><clipPath id="a"><path fill="#fff" d="M0 0h512v512H0z"/></clipPath></defs></svg>